<svg xmlns="http://www.w3.org/2000/svg" version="1.1" xmlns:xlink="http://www.w3.org/1999/xlink" xmlns:svgjs="http://svgjs.dev/svgjs" width="2000" height="2024" viewBox="0 0 2000 2024"><g transform="matrix(1,0,0,1,1.7682297702672258,0.8194331983804659)"><svg viewBox="0 0 244 247" data-background-color="#ffffff" preserveAspectRatio="xMidYMid meet" height="2024" width="2000" xmlns="http://www.w3.org/2000/svg" xmlns:xlink="http://www.w3.org/1999/xlink"><g id="tight-bounds" transform="matrix(1,0,0,1,-0.2157240319725986,-0.09999999999999432)"><svg viewBox="0 0 244.43135999999998 247.2" height="247.2" width="244.43135999999998"><g><svg></svg></g><g><svg viewBox="0 0 244.43135999999998 247.2" height="247.2" width="244.43135999999998"><g transform="matrix(1,0,0,1,0,81.7788213288797)"><svg viewBox="0 0 244.43135999999998 83.64235734224059" height="83.64235734224059" width="244.43135999999998"><g><svg viewBox="0 0 244.43135999999998 83.64235734224059" height="83.64235734224059" width="244.43135999999998"><g><svg viewBox="0 0 244.43135999999998 83.64235734224059" height="83.64235734224059" width="244.43135999999998"><g id="textblocktransform"><svg viewBox="0 0 244.43135999999998 83.64235734224059" height="83.64235734224059" width="244.43135999999998" id="textblock"><g><svg viewBox="0 0 244.43135999999998 83.64235734224059" height="83.64235734224059" width="244.43135999999998"><path d="M243.859 17.94C242.71 9.258 239.435 6.844 239.435 6.844 229.38-2.098 216.832-0.171 205.559 1.114 185.656 1.166 165.834 3.076 145.977 4.101 104.298 4.257 62.263 1.687 20.791 8.025 16.896 9.97-4.041 8.407 0.693 19.051 1.934 23.479 6.462 28.393 6.324 32.456 6.944 33.168 7.806 31.536 8.174 32.56 9.461 35.321 11.564 34.019 13.287 35.651 10.886 40.009 12.609 43.639 14.253 47.441 11.357 48.431 7.645 47.962 5.979 51.244 5.807 53.623 4.876 53.171 3.853 53.067 3.106 52.998 1.601 53.258 1.854 54.005 2.715 56.557-0.985 58.033 1.336 60.534-0.261 63.243 2.44 65.587 2.072 68.521 2.026 69.112 2.279 69.615 2.681 69.754 4.462 70.501 1.865 71.959 2.141 73.54 20.412 84.34 40.234 76.873 58.954 81.84 63.814 78.367 60.16 83.072 62.102 82.343 63.619 81.492 64.722 85.017 66.434 83.02 66.699 82.447 66.296 81.093 67.239 81.353 67.733 81.492 68.169 81.458 68.238 80.659 68.342 79.461 67.434 80.207 67.193 79.582 69.801 76.422 69.158 83.941 71.605 83.628 71.49 82.708 70.778 81.388 72.237 81.562 73.685 80.242 73.731 79.148 75.018 82.117 75.064 82.76 75.294 83.211 75.662 83.524 79.684 80.294 83.683 84.67 87.9 83.211 90.485 81.614 92.968 84.08 95.588 83.472 96.507 82.986 97.438 82.117 98.323 83.576 109.159 83.889 120.707 82.586 130.981 83.628 158.433 81.683 187.77 84.427 216.717 81.857 223.543 80.867 230.633 79.461 237.286 78.332 237.286 78.332 242.675 75.241 242.675 61.35S243.825 49.195 243.997 38.134C244.169 27.073 244.974 26.622 243.825 17.94Z" opacity="1" fill="#000000" data-fill-palette-color="tertiary"></path><g transform="matrix(1,0,0,1,34.46482176,16.210552)"><svg width="175.50171647999997" viewBox="1.72 -31.38 139.01 40.58" height="51.22125334224059" data-palette-color="#ffffff"><path d="M6.21-2.93L17.24-2.93Q17.93-2.93 18.33-2.44 18.74-1.95 18.74-1.49L18.74-1.49Q18.74-0.86 18.39-0.43 18.05 0 17.24 0L17.24 0 3.62 0Q2.76 0 2.24-0.46 1.72-0.92 1.72-1.49L1.72-1.49Q1.72-2.41 2.18-2.99L2.18-2.99 14.6-18.85 3.45-18.85Q2.76-18.85 2.36-19.31 1.95-19.77 1.95-20.34L1.95-20.34Q1.95-20.92 2.3-21.38 2.64-21.84 3.45-21.84L3.45-21.84 16.9-21.84Q17.82-21.84 18.39-21.35 18.97-20.86 18.97-20.34L18.97-20.34Q18.97-19.48 18.45-18.74L18.45-18.74 6.21-2.93ZM45.4-1.9L39.37-18.45 33.27-1.9Q32.64 0 30.83 0 29.02 0 28.5-1.84L28.5-1.84 21.89-19.48Q21.78-19.83 21.78-20.14 21.78-20.46 21.89-20.8 22.01-21.15 22.3-21.26L22.3-21.26Q22.93-21.72 23.39-21.84L23.39-21.84Q24.77-21.84 25.05-20.57L25.05-20.57 30.97-3.79 37.07-20Q37.64-21.72 39.48-21.84L39.48-21.84Q40.28-21.84 40.97-21.44 41.66-21.03 42.01-20L42.01-20 47.76-3.97 53.62-20.57Q54.02-21.84 55.11-21.84L55.11-21.84Q55.8-21.84 56.29-21.35 56.78-20.86 56.78-20.34 56.78-19.83 56.72-19.48L56.72-19.48 49.94-1.84Q49.37 0 47.76 0L47.76 0Q45.92 0 45.4-1.9L45.4-1.9ZM65.63-29.43L65.63-29.43Q65.63-28.51 65-27.93 64.36-27.36 63.21-27.36 62.06-27.36 61.43-27.93 60.8-28.51 60.8-29.43L60.8-29.43Q60.8-30.23 61.43-30.8 62.06-31.38 63.24-31.38 64.42-31.38 65.02-30.8 65.63-30.23 65.63-29.43ZM61.49-1.72L61.49-20Q61.49-20.86 62.06-21.35 62.64-21.84 63.1-21.84 63.56-21.84 63.85-21.7 64.13-21.55 64.42-21.26L64.42-21.26Q65.05-20.86 65.05-20L65.05-20 65.05-1.72Q65.05-0.86 64.48-0.43 63.9 0 63.21 0L63.21 0Q62.52 0 62.01-0.43 61.49-0.86 61.49-1.72L61.49-1.72ZM80.57-19.48L80.57-19.48Q74.13-19.48 74.13-10.92L74.13-10.92Q74.13-6.9 76.14-4.6L76.14-4.6Q77.87-2.59 80.62-2.53L80.62-2.53Q83.44-2.53 85.39-4.66L85.39-4.66Q87.46-6.9 87.46-10.8L87.46-10.8Q87.46-16.67 83.79-18.74L83.79-18.74Q82.52-19.48 80.57-19.48ZM79.65-22.24L79.65-22.24Q85.28-22.24 87.58-17.93L87.58-17.93 87.58-20.34Q87.69-21.03 88.15-21.44 88.61-21.84 89.25-21.84 89.88-21.84 90.39-21.38 90.91-20.92 90.91-20.17L90.91-20.17 90.91 0.46Q90.91 4.94 88.04 7.13L88.04 7.13Q85.45 9.2 80.57 9.2L80.57 9.2Q76.2 9.2 74.02 7.7L74.02 7.7Q72.29 6.44 72.29 5.63L72.29 5.63Q72.29 5.06 72.66 4.68 73.04 4.31 73.53 4.31 74.02 4.31 74.48 4.63 74.94 4.94 75.57 5.23 76.2 5.52 76.83 5.75L76.83 5.75Q78.5 6.32 80.25 6.32 82 6.32 83.3 6.03 84.59 5.75 85.51 5.06L85.51 5.06Q87.46 3.79 87.46 0.69L87.46 0.69 87.46-4.31Q85.8-1.15 82.18-0.23L82.18-0.23Q81.03 0 79.94 0L79.94 0Q75.16 0 72.64-3.28L72.64-3.28Q70.28-6.21 70.28-10.8L70.28-10.8Q70.28-15.69 72.64-18.79L72.64-18.79Q75.11-22.24 79.65-22.24ZM105.97-19.48L105.97-19.48Q99.53-19.48 99.53-10.92L99.53-10.92Q99.53-6.9 101.54-4.6L101.54-4.6Q103.27-2.59 106.02-2.53L106.02-2.53Q108.84-2.53 110.79-4.66L110.79-4.66Q112.86-6.9 112.86-10.8L112.86-10.8Q112.86-16.67 109.19-18.74L109.19-18.74Q107.92-19.48 105.97-19.48ZM105.05-22.24L105.05-22.24Q110.68-22.24 112.98-17.93L112.98-17.93 112.98-20.34Q113.09-21.03 113.55-21.44 114.01-21.84 114.65-21.84 115.28-21.84 115.79-21.38 116.31-20.92 116.31-20.17L116.31-20.17 116.31 0.46Q116.31 4.94 113.44 7.13L113.44 7.13Q110.85 9.2 105.97 9.2L105.97 9.2Q101.6 9.2 99.42 7.7L99.42 7.7Q97.69 6.44 97.69 5.63L97.69 5.63Q97.69 5.06 98.06 4.68 98.44 4.31 98.93 4.31 99.42 4.31 99.88 4.63 100.33 4.94 100.97 5.23 101.6 5.52 102.23 5.75L102.23 5.75Q103.9 6.32 105.65 6.32 107.4 6.32 108.7 6.03 109.99 5.75 110.91 5.06L110.91 5.06Q112.86 3.79 112.86 0.69L112.86 0.69 112.86-4.31Q111.2-1.15 107.58-0.23L107.58-0.23Q106.43 0 105.33 0L105.33 0Q100.56 0 98.04-3.28L98.04-3.28Q95.68-6.21 95.68-10.8L95.68-10.8Q95.68-15.69 98.04-18.79L98.04-18.79Q100.51-22.24 105.05-22.24ZM126.25 6.32L128.84-0.17 120.39-19.48Q120.22-19.83 120.22-20.17 120.22-20.52 120.39-20.83 120.56-21.15 120.79-21.26L120.79-21.26Q121.48-21.72 122.11-21.84L122.11-21.84Q123.32-21.84 123.84-20.69L123.84-20.69 130.68-4.14 137.46-20.69Q137.98-21.84 138.81-21.84 139.64-21.84 140.19-21.35 140.73-20.86 140.73-20.34 140.73-19.83 140.56-19.48L140.56-19.48 129.53 7.36Q129.01 8.51 127.92 8.51L127.92 8.51Q127.23 8.51 126.77 8.16L126.77 8.16Q126.08 7.59 126.08 7.07 126.08 6.55 126.25 6.32L126.25 6.32Z" opacity="1" transform="matrix(1,0,0,1,0,0)" fill="#ffffff" class="wordmark-text-0" data-fill-palette-color="quaternary" id="text-0"></path></svg></g></svg></g></svg></g></svg></g><g></g></svg></g></svg></g><path d="M0 75.779L0 1 244.431 1 244.431 75.779 239.812 75.779 239.812 5.619 4.619 5.619 4.619 75.779 0 75.779M0 171.421L0 246.2 244.431 246.2 244.431 171.421 239.812 171.421 239.812 241.581 4.619 241.581 4.619 171.421 0 171.421" fill="#000000" stroke="transparent" data-fill-palette-color="tertiary"></path></svg></g><defs></defs></svg><rect width="244.43135999999998" height="247.2" fill="none" stroke="none" visibility="hidden"></rect></g></svg></g></svg>