<svg xmlns="http://www.w3.org/2000/svg" version="1.1" xmlns:xlink="http://www.w3.org/1999/xlink" xmlns:svgjs="http://svgjs.dev/svgjs" width="2000" height="1544" viewBox="0 0 2000 1544"><g transform="matrix(1,0,0,1,1.145403294519042,0)"><svg viewBox="0 0 259 200" data-background-color="#ffffff" preserveAspectRatio="xMidYMid meet" height="1544" width="2000" xmlns="http://www.w3.org/2000/svg" xmlns:xlink="http://www.w3.org/1999/xlink"><g id="tight-bounds" transform="matrix(1,0,0,1,-0.14832972664021327,0)"><svg viewBox="0 0 259.2966594532804 200" height="200" width="259.2966594532804"><g><svg viewBox="0 0 397.49759999999986 306.5967767098212" height="200" width="259.2966594532804"><g><rect width="397.49759999999986" height="10.790640165140424" x="0" y="147.9030682723404" fill="#ff8400" opacity="1" stroke-width="0" stroke="transparent" fill-opacity="1" class="rect-qz-0" data-fill-palette-color="primary" rx="1%" id="qz-0" data-palette-color="#ff8400"></rect></g><g transform="matrix(1,0,0,1,0.9887999999999693,186.94145756088506)"><svg viewBox="0 0 395.5199999999999 119.65531914893614" height="119.65531914893614" width="395.5199999999999"><g id="textblocktransform"><svg viewBox="0 0 395.5199999999999 119.65531914893614" height="119.65531914893614" width="395.5199999999999" id="textblock"><g><svg viewBox="0 0 395.5199999999999 119.65531914893614" height="119.65531914893614" width="395.5199999999999"><g transform="matrix(1,0,0,1,0,0)"><svg width="395.5199999999999" viewBox="2.2 -35.9 150.39000000000001 45.5" height="119.65531914893614" data-palette-color="#ff8400"><path d="M20.45-3.55L20.45 0 2.2 0 2.2-3.1 15.05-21.85 2.7-21.85 2.7-25.35 19.75-25.35 19.75-22.45 6.75-3.55 20.45-3.55ZM38.85-8.3L36.55 0 31.7 0 23.9-25.35 28.1-25.35 30.55-16.95Q31.85-12.55 32.72-9.28 33.6-6 33.85-4.9L33.85-4.9 34.1-3.85Q34.85-7.05 37.75-17L37.75-17 40.15-25.35 44.35-25.35 46.8-17 50.55-3.8Q51.25-6.75 54.4-17L54.4-17 56.95-25.35 61-25.35 53 0 48.15 0 45.75-8.3 42.25-20.95Q41.5-17.75 38.85-8.3L38.85-8.3ZM70.05-25.35L70.05 0 66.09 0 66.09-25.35 70.05-25.35ZM69.9-35.15Q70.65-34.4 70.65-33.3 70.65-32.2 69.9-31.48 69.15-30.75 68.05-30.75 66.95-30.75 66.22-31.48 65.5-32.2 65.5-33.3 65.5-34.4 66.22-35.15 66.95-35.9 68.05-35.9 69.15-35.9 69.9-35.15ZM97.99-25.35L97.99-2.05Q97.99 3.75 94.79 6.68 91.59 9.6 86.54 9.6L86.54 9.6Q81.94 9.6 78.69 8.05L78.69 8.05 78.69 4.1Q81.89 5.95 86.19 5.95L86.19 5.95Q89.84 5.95 91.94 4 94.04 2.05 94.04-2.1L94.04-2.1 94.04-4.95Q91.54-0.65 86.59-0.65L86.59-0.65Q82.24-0.65 79.17-3.85 76.09-7.05 76.09-12.75L76.09-12.75Q76.09-18.4 78.94-22.05 81.79-25.7 86.39-25.7L86.39-25.7Q91.59-25.7 94.04-21.15L94.04-21.15 94.04-25.35 97.99-25.35ZM80.19-12.85L80.19-12.85Q80.19-8.6 82.29-6.38 84.39-4.15 87.04-4.15L87.04-4.15Q89.79-4.15 91.92-6.28 94.04-8.4 94.04-12.6L94.04-12.6Q94.04-17.45 91.99-19.8 89.94-22.15 87.24-22.15L87.24-22.15Q83.99-22.15 82.09-19.58 80.19-17 80.19-12.85ZM125.44-25.35L125.44-2.05Q125.44 3.75 122.24 6.68 119.04 9.6 113.99 9.6L113.99 9.6Q109.39 9.6 106.14 8.05L106.14 8.05 106.14 4.1Q109.34 5.95 113.64 5.95L113.64 5.95Q117.29 5.95 119.39 4 121.49 2.05 121.49-2.1L121.49-2.1 121.49-4.95Q118.99-0.65 114.04-0.65L114.04-0.65Q109.69-0.65 106.62-3.85 103.54-7.05 103.54-12.75L103.54-12.75Q103.54-18.4 106.39-22.05 109.24-25.7 113.84-25.7L113.84-25.7Q119.04-25.7 121.49-21.15L121.49-21.15 121.49-25.35 125.44-25.35ZM107.64-12.85L107.64-12.85Q107.64-8.6 109.74-6.38 111.84-4.15 114.49-4.15L114.49-4.15Q117.24-4.15 119.37-6.28 121.49-8.4 121.49-12.6L121.49-12.6Q121.49-17.45 119.44-19.8 117.39-22.15 114.69-22.15L114.69-22.15Q111.44-22.15 109.54-19.58 107.64-17 107.64-12.85ZM152.59-25.35L143.44-0.65Q141.49 4.5 138.81 6.6 136.14 8.7 132.69 8.7L132.69 8.7Q131.39 8.7 130.59 8.45L130.59 8.45 130.59 4.9Q131.34 5.1 132.29 5.1L132.29 5.1Q137.34 5.1 139.44-0.65L139.44-0.65 129.19-25.35 133.64-25.35 136.94-17 141.39-5.5Q141.79-6.8 145.39-17L145.39-17 148.34-25.35 152.59-25.35Z" opacity="1" transform="matrix(1,0,0,1,0,0)" fill="#ff8400" class="wordmark-text-0" data-fill-palette-color="primary" id="text-0"></path></svg></g></svg></g></svg></g></svg></g><g transform="matrix(1,0,0,1,117.87886530273029,0)"><svg viewBox="0 0 161.73986939453928 119.65531914893614" height="119.65531914893614" width="161.73986939453928"><g><svg xmlns="http://www.w3.org/2000/svg" xmlns:xlink="http://www.w3.org/1999/xlink" version="1.1" x="0" y="0" viewBox="7.284000000000001 29.790000000000003 85.131 62.97999999999999" enable-background="new 0 0 100 100" xml:space="preserve" height="119.65531914893614" width="161.73986939453928" class="icon-icon-0" data-fill-palette-color="accent" id="icon-0"><g fill="#98d3df" data-fill-palette-color="accent"><path fill="#98d3df" d="M8.534 46.081c-0.69 0-1.25-0.56-1.25-1.25V32.765c0-0.69 0.56-1.25 1.25-1.25s1.25 0.56 1.25 1.25v12.066C9.784 45.521 9.224 46.081 8.534 46.081z" data-fill-palette-color="accent"></path></g><g fill="#98d3df" data-fill-palette-color="accent"><g fill="#98d3df" data-fill-palette-color="accent"><path fill="#98d3df" d="M12.702 86.225c-0.69 0-1.25-0.56-1.25-1.25V49.479c0-0.69 0.56-1.25 1.25-1.25s1.25 0.56 1.25 1.25v35.495C13.952 85.665 13.392 86.225 12.702 86.225z" data-fill-palette-color="accent"></path></g><g fill="#98d3df" data-fill-palette-color="accent"><path fill="#98d3df" d="M12.687 50.358c-2.942 0-5.336-2.449-5.336-5.46 0-0.69 0.56-1.25 1.25-1.25s1.25 0.56 1.25 1.25c0 1.632 1.272 2.96 2.836 2.96 0.69 0 1.25 0.56 1.25 1.25S13.377 50.358 12.687 50.358z" data-fill-palette-color="accent"></path></g><g fill="#98d3df" data-fill-palette-color="accent"><path fill="#98d3df" d="M12.459 46.081c-0.69 0-1.25-0.56-1.25-1.25V32.765c0-0.69 0.56-1.25 1.25-1.25s1.25 0.56 1.25 1.25v12.066C13.709 45.521 13.149 46.081 12.459 46.081z" data-fill-palette-color="accent"></path></g></g><g fill="#98d3df" data-fill-palette-color="accent"><path fill="#98d3df" d="M16.358 46.081c-0.69 0-1.25-0.56-1.25-1.25V32.765c0-0.69 0.56-1.25 1.25-1.25s1.25 0.56 1.25 1.25v12.066C17.608 45.521 17.048 46.081 16.358 46.081z" data-fill-palette-color="accent"></path></g><g fill="#98d3df" data-fill-palette-color="accent"><path fill="#98d3df" d="M91.164 86.49L91.164 86.49c-0.69 0-1.25-0.56-1.25-1.25 0-0.425 0.003-35.414 0.001-47.628-1.841 4.31-4.183 11.774-4.183 13.62 0 2.496 1.853 2.766 2.649 2.766 0.69 0 1.25 0.56 1.25 1.25s-0.56 1.25-1.25 1.25c-3.08 0-5.149-2.116-5.149-5.266 0-1.606 4.413-19.029 7.932-19.029 0.081 0 0.162 0.008 0.241 0.023 1.009 0.198 1.009 0.32 1.01 3.452l0 5.866L92.414 85.24C92.414 85.931 91.854 86.49 91.164 86.49z" data-fill-palette-color="accent"></path></g><g fill="#98d3df" data-fill-palette-color="accent"><path fill="#98d3df" d="M49.69 92.77c-17.364 0-31.49-14.127-31.49-31.49s14.126-31.49 31.49-31.49 31.49 14.127 31.49 31.49S67.054 92.77 49.69 92.77zM49.69 32.666c-15.778 0-28.614 12.836-28.614 28.613S33.912 89.893 49.69 89.893s28.614-12.836 28.614-28.613S65.468 32.666 49.69 32.666z" data-fill-palette-color="accent"></path></g><g fill="#98d3df" data-fill-palette-color="accent"><path fill="#98d3df" d="M49.69 83.443c-12.221 0-22.164-9.943-22.164-22.164s9.942-22.164 22.164-22.164 22.164 9.943 22.164 22.164S61.911 83.443 49.69 83.443zM49.69 41.992c-10.635 0-19.288 8.652-19.288 19.287s8.652 19.287 19.288 19.287 19.288-8.652 19.288-19.287S60.325 41.992 49.69 41.992z" data-fill-palette-color="accent"></path></g></svg></g></svg></g><g></g></svg></g><defs></defs></svg><rect width="259.2966594532804" height="200" fill="none" stroke="none" visibility="hidden"></rect></g></svg></g></svg>